As Harry races against time and evil to destroy the Horcruxes, he uncovers the existence of three most powerful objects in the wizarding world: the Deathly Hallows.

Director: David Yates
Writers: Steve Kloves (screenplay), J.K. Rowling (novel)
Stars: Daniel Radcliffe, Emma Watson and Rupert Grint



Format                           : MPEG-4
Format profile                   : Base Media
Codec ID                         : isom
File size                        : 3.37 GiB
Duration                         : 2h 18mn
Overall bit rate                 : 3 492 Kbps


Video
ID                               : 1
Format                           : AVC
Format/Info                      : Advanced Video Codec
Format profile                   : High@L4.0
Format settings, CABAC           : Yes
Format settings, ReFrames        : 3 frames
Codec ID                         : avc1
Codec ID/Info                    : Advanced Video Coding
Duration                         : 2h 18mn
Bit rate mode                    : Variable
Bit rate                         : 3 360 Kbps
Maximum bit rate                 : 25.0 Mbps
Width                            : 1 280 pixels
Height                           : 536 pixels
Display aspect ratio             : 2.40:1
Frame rate mode                  : Constant
Frame rate                       : 23.976 fps
Color space                      : YUV
Chroma subsampling               : 4:2:0
Bit depth                        : 8 bits
Scan type                        : Progressive
Bits/(Pixel*Frame)               : 0.204
Stream size                      : 3.24 GiB (96%)


Audio
ID                               : 2
Format                           : AAC
Format/Info                      : Advanced Audio Codec
Format profile                   : LC
Codec ID                         : 40
Duration                         : 2h 18mn
Bit rate mode                    : Variable
Bit rate                         : 128 Kbps
Maximum bit rate                 : 135 Kbps
Channel(s)                       : 2 channels
Channel positions                : Front: L R
Sampling rate                    : 48.0 KHz
Compression mode                 : Lossy
Stream size                      : 127 MiB (4%)
Language                         : Hindi
Encoded date                     : UTC 2011-08-10 05:29:39
Tagged date                      : UTC 2011-08-10 05:29:58





Source:
Harry.Potter.And.The.Deathly.Hallows.Part.1.2010.720p.BRRip.XviD.AC3-ViSiON

Seed please.. :)